# xmcd
#
# Track frame offsets:
#	150
#	27657
#	63617
#	90351
#	111623
#	134153
#	158737
#	190677
#	217530
#	241188
#	255602
#
# Disc length: 3779 seconds
#
# Revision: 4
# Processed by: cddbd v1.5.2PL0 Copyright (c) Steve Scherf et al.
# Submitted via: audiograbber 1.83.01
#
DISCID=970ec10b
DTITLE=Marillion - Live From Cadogan Hall [CD 1)
DYEAR=2011
DGENRE=Progressive Rock
TTITLE0=Go! [live]
TTITLE1=Interior Lulu [live]
TTITLE2=Out Of This World [live]
TTITLE3=Wrapped Up In Time [live]
TTITLE4=The Space [live]
TTITLE5=Hard As Love [live]
TTITLE6=Quartz [live]
TTITLE7=If My Heart Were A Ball [live]
TTITLE8=It's Not Your Fault [live]
TTITLE9=Memory Of Water [live]
TTITLE10=This Is The 21st Century [live]
EXTD=
EXTT0=
EXTT1=
EXTT2=
EXTT3=
EXTT4=
EXTT5=
EXTT6=
EXTT7=
EXTT8=
EXTT9=
EXTT10=
PLAYORDER=
